<!-- Generated by IcoMoon.io -->
<svg version="1.1" xmlns="http://www.w3.org/2000/svg" width="32" height="32" viewBox="0 0 32 32">
<title>google</title>
<path fill="#fff" d="M26.339 0c0 0-7.433 0-9.91 0-4.443 0-8.624 3.366-8.624 7.265 0 3.984 3.029 7.2 7.548 7.2 0.314 0 0.62-0.006 0.919-0.028-0.293 0.562-0.503 1.194-0.503 1.851 0 1.107 0.596 2.005 1.349 2.738-0.569 0-1.118 0.017-1.718 0.017-5.503-0-9.739 3.505-9.739 7.139 0 3.58 4.643 5.818 10.147 5.818 6.274 0 9.739-3.56 9.739-7.139 0-2.87-0.847-4.589-3.465-6.441-0.896-0.634-2.609-2.176-2.609-3.083 0-1.062 0.303-1.586 1.902-2.835 1.639-1.281 2.799-3.081 2.799-5.175 0-2.493-1.11-4.923-3.195-5.724h3.142l2.218-1.603zM22.878 24.243c0.079 0.332 0.122 0.673 0.122 1.022 0 2.892-1.864 5.153-7.211 5.153-3.804 0-6.551-2.408-6.551-5.3 0-2.835 3.407-5.194 7.211-5.153 0.888 0.009 1.715 0.152 2.466 0.395 2.065 1.436 3.546 2.247 3.964 3.884zM16.787 13.455c-2.553-0.076-4.98-2.856-5.42-6.209-0.441-3.353 1.271-5.919 3.824-5.843s4.98 2.767 5.421 6.12c0.44 3.353-1.272 6.009-3.824 5.932z"></path>
</svg>
